<?xml version="1.0" encoding="utf-8"?>
<!-- Generator: Adobe Illustrator 18.0.0, SVG Export Plug-In . SVG Version: 6.00 Build 0)  -->
<!DOCTYPE svg PUBLIC "-//W3C//DTD SVG 1.1//EN" "http://www.w3.org/Graphics/SVG/1.1/DTD/svg11.dtd">
<svg version="1.1" id="图层_1" xmlns="http://www.w3.org/2000/svg" xmlns:xlink="http://www.w3.org/1999/xlink" x="0px" y="0px"
	 viewBox="0 0 1024 1024" style="enable-background:new 0 0 1024 1024;" xml:space="preserve">
<style type="text/css">
	.st0{fill-rule:evenodd;clip-rule:evenodd;}
</style>
<g>
	<path class="st0" d="M760.189,225.21H168.351v470.435h591.838V225.21L760.189,225.21z M722.251,657.707H206.289V263.148h515.961
		V657.707L722.251,657.707z M852,349.648v455.26H237.399v-73.6h37.938v35.662h538.725V387.586h-20.487v-37.938H852L852,349.648z
		 M445.301,525.757h-87.258v-37.938h87.258v-42.415h-87.258v-37.938h77.546l-69.807-69.806l26.86-26.86l71.628,71.628l71.628-71.628
		l26.86,26.86l-69.807,69.806h77.546v37.938h-87.258v42.415h87.258v37.938h-87.258v84.223h-37.938V525.757L445.301,525.757z"/>
		</g>
</svg>
