<?xml version="1.0" encoding="utf-8"?>
<!-- Generator: Adobe Illustrator 18.0.0, SVG Export Plug-In . SVG Version: 6.00 Build 0)  -->
<!DOCTYPE svg PUBLIC "-//W3C//DTD SVG 1.1//EN" "http://www.w3.org/Graphics/SVG/1.1/DTD/svg11.dtd">
<svg version="1.1" id="图层_1" xmlns="http://www.w3.org/2000/svg" xmlns:xlink="http://www.w3.org/1999/xlink" x="0px" y="0px"
	 viewBox="0 0 1024 1024" style="enable-background:new 0 0 1024 1024;" xml:space="preserve">
<style type="text/css">
	.st0{fill:#FFFFFF;stroke:#231815;stroke-miterlimit:10;}
</style>
<g>
	<g>
		<path d="M588.756,96.986c39.867,0.886,78.157,33.536,63.839,80.233c-3.871,12.627-12.24,21.189-19.43,30.438
			c74.006,120.492,148.034,241.025,222.04,361.52c62.148,0.108,94.101,77.171,45.335,113.437
			c-11.066,8.225-30.829,16.382-50.888,11.988c-8.265-1.812-23.527-12.455-27.754-10.144
			c-82.022,47.952-164.069,95.918-246.092,143.869c2.145,92.55-120.311,94.834-126.746,6.458
			c-60.75-33.815-121.513-67.634-182.258-101.449c-13.216-7.748-49.544-33.262-58.286-22.133
			c-9.574,4.623-17.501,12.056-29.606,14.754c-46.5,10.369-88.939-32.125-74.937-78.39c7.352-24.29,24.983-37.196,49.032-45.191
			c18.81-79.919,37.628-159.865,56.437-239.784c-16.888-14.083-34.066-17.69-41.634-41.499
			c-14.578-45.871,25.344-92.829,74.015-81.16c17.776,4.263,26.054,14.456,37.93,23.981c83.26-30.739,166.537-61.487,249.797-92.226
			c-5.104-35.619,14.078-60.359,37.929-70.094C574.57,100.062,581.665,98.524,588.756,96.986L588.756,96.986z M589.683,128.341
			c-13.234,4.843-23.306,6.274-28.68,18.446c-9.515,21.544,7.657,48.676,31.454,45.191
			C633.008,186.042,630.44,139.106,589.683,128.341L589.683,128.341z M536.946,198.435
			c-83.255,30.739-166.538,61.487-249.793,92.226c0.373,4.69,0.023,16.462,2.774,19.367c9.133,8.782,102.925,62.531,111.945,63.633
			c47.799-55.943,95.607-111.903,143.402-167.846C543.152,201.87,541.785,199.843,536.946,198.435L536.946,198.435z M565.63,218.724
			c-47.489,55.943-94.991,111.903-142.475,167.851c0.305,0.611,0.616,1.227,0.922,1.843c39.161,21.822,78.335,43.654,117.497,65.476
			c10.176-78.075,20.357-156.173,30.532-234.248C569.947,219.339,567.784,219.03,565.63,218.724L565.63,218.724z M607.26,220.568
			c-0.926,0.921-1.852,1.843-2.774,2.765c-11.102,82.383-22.204,164.783-33.306,247.162c55.502,31.355,111.026,62.719,166.529,94.07
			c13.399,7.914,53.797,36.903,66.613,36.889c4.168-12.617,14.497-16.183,22.204-24.897
			C753.442,457.904,680.34,339.22,607.26,220.568L607.26,220.568z M222.392,270.367c-9.056,4.201-17.051,6.017-22.204,13.837
			c-14.308,21.709,4.16,56.001,33.307,48.878C268.64,324.498,264.841,269.298,222.392,270.367L222.392,270.367z M277.904,336.77
			c1.552,11.979,46.572,109.839,53.658,117.129h0.927c16.651-19.983,33.307-39.966,49.958-59.944
			C347.602,374.892,312.749,355.827,277.904,336.77L277.904,336.77z M253.847,357.058c-4.933,1.538-9.866,3.076-14.799,4.614
			c-18.503,80.535-37.011,161.092-55.51,241.627c5.242,2.154,10.486,4.308,15.725,6.457c37.623-43.954,75.251-87.926,112.87-131.881
			C303.557,459.352,264.215,364.612,253.847,357.058L253.847,357.058z M519.369,630.966c4.626-35.964,9.254-71.937,13.88-107.901
			c1.731-9.407,6.813-35.362,2.775-40.578c-33.302-19.367-66.619-38.739-99.92-58.101c-8.058-4.847-24.907-19.56-33.307-16.602
			c-19.731,23.36-39.471,46.729-59.207,70.089c24.668,52.566,49.341,105.145,74.01,157.706
			C451.519,634.042,485.451,632.504,519.369,630.966L519.369,630.966z M567.479,500.928c-5.243,42.731-10.487,85.468-15.729,128.196
			c74.315-3.687,148.65-7.38,222.965-11.067C705.642,579.017,636.552,539.968,567.479,500.928L567.479,500.928z M322.308,503.699
			c-35.46,41.805-70.93,83.619-106.391,125.425c3.085,5.841,6.17,11.682,9.251,17.523c53.654-2.765,107.325-5.53,160.979-8.301
			v-0.921C364.869,592.853,343.587,548.268,322.308,503.699L322.308,503.699z M857.979,600.534
			c-13.229,4.999-22.893,6.502-28.68,18.445c-10.207,21.076,8.426,48.64,31.454,45.191
			C901.795,658.027,898.809,611.564,857.979,600.534L857.979,600.534z M156.706,632.81c-7.258,3.97-14.956,6.34-19.425,12.915
			c-15.46,22.712,5.27,57.421,35.155,48.877C206.736,684.796,202.301,630.895,156.706,632.81L156.706,632.81z M545.274,662.326
			c-4.933,38.424-9.87,76.857-14.804,115.281c13.823,3.93,25.433,14.002,32.38,24.898c79.56-46.414,159.136-92.843,238.691-139.257
			c-1.538-4.609-3.08-9.223-4.623-13.836C713.044,653.715,629.15,658.023,545.274,662.326L545.274,662.326z M513.821,662.326
			c-27.754,1.533-55.511,3.071-83.265,4.609c18.194,37.197,36.392,74.397,54.585,111.594c4.934-1.844,9.871-3.692,14.799-5.536
			C504.565,736.107,509.193,699.212,513.821,662.326L513.821,662.326z M388.922,668.779c-54.581,3.381-109.174,6.768-163.754,10.144
			c0.31,0.617,0.62,1.233,0.926,1.849c76.781,42.111,153.587,84.236,230.367,126.347c1.233-3.687,2.465-7.38,3.701-11.067
			c-19.735-42.421-39.476-84.852-59.211-127.272H388.922z M509.193,805.274c-9.906,3.916-18.517,4.982-24.053,12.91
			c-14.591,20.896,1.448,52.493,26.827,50.722C552.545,866.077,550.674,807.883,509.193,805.274L509.193,805.274z M509.193,805.274"
			/>
	</g>
</g>
<circle class="st0" cx="511.064" cy="839.471" r="42.592"/>
</svg>
