<?xml version="1.0" encoding="utf-8"?>
<!-- Generator: Adobe Illustrator 18.0.0, SVG Export Plug-In . SVG Version: 6.00 Build 0)  -->
<!DOCTYPE svg PUBLIC "-//W3C//DTD SVG 1.1//EN" "http://www.w3.org/Graphics/SVG/1.1/DTD/svg11.dtd">
<svg version="1.1" id="图层_1" xmlns="http://www.w3.org/2000/svg" xmlns:xlink="http://www.w3.org/1999/xlink" x="0px" y="0px"
	 viewBox="0 0 1024 1024" style="enable-background:new 0 0 1024 1024;" xml:space="preserve">
<style type="text/css">
	.st0{fill-rule:evenodd;clip-rule:evenodd;fill:#999999;}
</style>
<g>
	<path class="st0" d="M510.662,589.279c10.92,0,19.771-8.851,19.771-19.771c0-10.919-8.851-19.77-19.771-19.77h-54.457
		l49.241-49.242c7.722-7.722,7.722-20.24,0-27.961c-7.72-7.721-20.241-7.721-27.959,0l-59.561,59.56
		c-0.904-0.126-1.819-0.214-2.758-0.214c-0.94,0-1.856,0.088-2.761,0.214l-59.56-59.56c-7.721-7.721-20.238-7.721-27.96,0
		c-7.722,7.722-7.722,20.24,0,27.961l49.241,49.242h-54.457c-10.919,0-19.771,8.851-19.771,19.77
		c0,10.92,8.852,19.771,19.771,19.771h75.727v42.114h-75.727c-10.919,0-19.771,8.851-19.771,19.771
		c0,10.918,8.852,19.771,19.771,19.771h75.727v71.71c0,10.92,8.852,19.772,19.771,19.772c10.92,0,19.771-8.853,19.771-19.772v-71.71
		h75.723c10.92,0,19.771-8.853,19.771-19.771c0-10.92-8.851-19.771-19.771-19.771H434.94v-42.114H510.662L510.662,589.279z"/>
	<path class="st0" d="M802.644,184.369H222.143c-21.267,0-38.57,17.377-38.57,38.736v580.241c0,21.358,17.302,38.733,38.57,38.733
		H620.51l220.704-228.31V223.105C841.214,201.746,823.911,184.369,802.644,184.369L802.644,184.369z M632.978,772.612V629.276
		h137.997L632.978,772.612L632.978,772.612z M801.672,589.734H613.206c-10.919,0-19.771,8.853-19.771,19.771v193.033h-370.32
		V223.911h578.557V589.734L801.672,589.734z"/>
	<path class="st0" d="M318.587,382.078H717.96c10.918,0,19.771-8.852,19.771-19.771c0-10.92-8.853-19.772-19.771-19.772H318.587
		c-10.919,0-19.771,8.852-19.771,19.772C298.816,373.227,307.668,382.078,318.587,382.078L318.587,382.078z M717.96,448.6H590.108
		c-10.919,0-19.77,8.852-19.77,19.771c0,10.92,8.851,19.771,19.77,19.771H717.96c10.918,0,19.771-8.851,19.771-19.771
		C737.731,457.453,728.878,448.6,717.96,448.6L717.96,448.6z"/>
</g>
</svg>
