<?xml version="1.0" encoding="utf-8"?>
<!-- Generator: Adobe Illustrator 18.0.0, SVG Export Plug-In . SVG Version: 6.00 Build 0)  -->
<!DOCTYPE svg PUBLIC "-//W3C//DTD SVG 1.1//EN" "http://www.w3.org/Graphics/SVG/1.1/DTD/svg11.dtd">
<svg version="1.1" id="图层_1" xmlns="http://www.w3.org/2000/svg" xmlns:xlink="http://www.w3.org/1999/xlink" x="0px" y="0px"
	 viewBox="0 0 1024 1024" style="enable-background:new 0 0 1024 1024;" xml:space="preserve">
<style type="text/css">
	.st0{fill-rule:evenodd;clip-rule:evenodd;}
</style>
<g>
	<path class="st0" d="M271.423,721.098c-29.932,0-54.251-24.707-54.251-55.061V225.033l-18.09,18.373H796.15
		c29.886,0,54.177,24.703,54.177,55.061V739.47l18.09-18.372H542.795h-5.439l-4.537,3.046L377.979,828.098
		c-8.335,5.596-10.625,16.994-5.115,25.458c5.509,8.465,16.732,10.791,25.066,5.195l154.84-103.955l-9.976,3.046h325.622h18.09
		V739.47V298.466c0-50.642-40.478-91.807-90.357-91.807H199.082h-18.09v18.373v441.005c0,50.646,40.515,91.806,90.431,91.806h94.296
		c9.991,0,18.09-8.226,18.09-18.372c0-10.147-8.099-18.372-18.09-18.372H271.423L271.423,721.098z"/>
	<path class="st0" d="M434.254,482.251c0-40.588-32.397-73.491-72.361-73.491c-39.963,0-72.36,32.903-72.36,73.491
		c0,40.589,32.397,73.492,72.36,73.492C401.857,555.743,434.254,522.84,434.254,482.251L434.254,482.251z M325.713,482.251
		c0-20.294,16.199-36.745,36.18-36.745c19.982,0,36.181,16.451,36.181,36.745s-16.199,36.746-36.181,36.746
		C341.911,518.997,325.713,502.545,325.713,482.251L325.713,482.251z"/>
	<path class="st0" d="M615.155,482.251c0-40.588-32.397-73.491-72.36-73.491c-39.964,0-72.361,32.903-72.361,73.491
		c0,40.589,32.397,73.492,72.361,73.492C582.758,555.743,615.155,522.84,615.155,482.251L615.155,482.251z M506.614,482.251
		c0-20.294,16.199-36.745,36.181-36.745c19.981,0,36.18,16.451,36.18,36.745s-16.199,36.746-36.18,36.746
		C522.812,518.997,506.614,502.545,506.614,482.251L506.614,482.251z"/>
	<path class="st0" d="M796.056,482.251c0-40.588-32.397-73.491-72.36-73.491c-39.963,0-72.361,32.903-72.361,73.491
		c0,40.589,32.398,73.492,72.361,73.492C763.659,555.743,796.056,522.84,796.056,482.251L796.056,482.251z M687.516,482.251
		c0-20.294,16.198-36.745,36.18-36.745c19.981,0,36.18,16.451,36.18,36.745s-16.199,36.746-36.18,36.746
		C703.714,518.997,687.516,502.545,687.516,482.251L687.516,482.251z"/>
</g>
</svg>
