<?xml version="1.0" encoding="utf-8"?>
<!-- Generator: Adobe Illustrator 18.0.0, SVG Export Plug-In . SVG Version: 6.00 Build 0)  -->
<!DOCTYPE svg PUBLIC "-//W3C//DTD SVG 1.1//EN" "http://www.w3.org/Graphics/SVG/1.1/DTD/svg11.dtd">
<svg version="1.1" id="图层_1" xmlns="http://www.w3.org/2000/svg" xmlns:xlink="http://www.w3.org/1999/xlink" x="0px" y="0px"
	 viewBox="0 0 1024 1024" style="enable-background:new 0 0 1024 1024;" xml:space="preserve">
<g>
	<g>
		<path d="M834.804,735.342H233.007V232.926c0-16.566-11.041-27.608-27.603-27.608c-16.566,0-27.608,11.041-27.608,27.608v535.541
			c0,16.566,11.041,27.608,27.608,27.608h629.399c16.562,0,27.608-11.041,27.608-27.608
			C862.411,751.904,851.366,735.342,834.804,735.342L834.804,735.342z M315.825,613.876h11.041c11.041,0,22.083-5.521,27.604-16.562
			l44.169-126.983l215.322,110.421c11.041,5.521,27.608,0,33.128-11.04l149.066-248.45c5.521-11.041,5.521-27.604-11.042-33.124
			c-11.042-5.525-27.604-5.525-38.648,11.041L613.961,525.541L398.639,409.6h-22.083c-5.521,0-16.565,11.042-16.565,16.561
			l-60.732,149.07C293.739,591.793,299.259,602.834,315.825,613.876L315.825,613.876z M315.825,613.876"/>
	</g>
</g>
</svg>
