<?xml version="1.0" encoding="utf-8"?>
<!-- Generator: Adobe Illustrator 18.0.0, SVG Export Plug-In . SVG Version: 6.00 Build 0)  -->
<!DOCTYPE svg PUBLIC "-//W3C//DTD SVG 1.1//EN" "http://www.w3.org/Graphics/SVG/1.1/DTD/svg11.dtd">
<svg version="1.1" id="图层_1" xmlns="http://www.w3.org/2000/svg" xmlns:xlink="http://www.w3.org/1999/xlink" x="0px" y="0px"
	 viewBox="0 0 1024 1024" style="enable-background:new 0 0 1024 1024;" xml:space="preserve">
<style type="text/css">
	.st0{fill-rule:evenodd;clip-rule:evenodd;}
</style>
<g>
	<path class="st0" d="M241.61,506.7h-5.983c-47.859-29.913-71.789-83.756-71.789-137.597V243.471
		c0-11.965,11.964-23.929,23.929-23.929h89.736v-47.859c0-11.967,11.967-23.931,29.913-23.931h412.79
		c17.948,0,29.913,11.965,29.913,23.931v47.859h83.755c11.967,0,23.931,11.965,23.931,23.929v125.632
		c0,53.843-23.931,107.685-71.791,137.597c0,0,0,0-5.983,0l-11.965,5.983l-5.984,5.983l0,0l0,0c-5.983,0-17.947,0-23.929,5.983
		c-11.965,35.896-29.912,77.772-59.825,107.685c-29.912,41.877-83.755,77.772-137.596,83.756v125.632
		c0,11.967,5.983,11.967,11.964,11.967h137.597c17.948,0,29.912,11.965,29.912,29.912c0,17.947-11.965,29.912-29.912,29.912H331.345
		c-17.948,0-29.912-11.965-29.912-29.912c0-17.947,11.965-29.912,29.912-29.912h137.597c11.964,0,11.964-5.984,11.964-11.967
		V716.089c-53.841-5.983-101.701-41.877-137.596-83.756c-23.931-29.912-47.86-71.789-53.843-107.685
		c-11.965-5.983-17.948-5.983-23.929-5.983c-5.983-5.983-17.948-5.983-23.929-11.964L241.61,506.7L241.61,506.7z M235.628,434.909
		l17.948,17.948c5.983,5.983,5.983,5.983,11.965,5.983c0,5.984,5.983,5.984,5.983,5.984V267.403h-53.841v101.701
		c0,23.929,5.983,47.859,17.948,65.807L235.628,434.909L235.628,434.909z M791.999,267.4h-41.877v197.421
		c5.983,0,5.983,0,11.967-5.983c0,0,0,0,5.983,0c0-5.983,5.983-5.983,5.983-11.965c23.929-17.948,35.896-47.859,35.896-77.772V267.4
		h-17.948H791.999L791.999,267.4z M510.822,189.63H319.384v245.28c0,65.808,23.929,125.632,59.825,167.509
		c35.895,41.876,77.771,65.807,131.615,65.807c53.841,0,101.701-23.929,131.614-65.807c35.896-41.877,59.825-101.701,59.825-167.509
		V189.63H510.825H510.822L510.822,189.63z M624.489,249.454L624.489,249.454c17.948,0,29.913,11.965,29.913,29.912v197.421
		c0,17.947-11.967,29.912-29.913,29.912l0,0c-11.965,0-29.912-11.965-29.912-29.912V279.366
		C594.577,261.418,612.525,249.454,624.489,249.454L624.489,249.454z"/>
</g>
</svg>
