<?xml version="1.0" encoding="utf-8"?>
<!-- Generator: Adobe Illustrator 18.0.0, SVG Export Plug-In . SVG Version: 6.00 Build 0)  -->
<!DOCTYPE svg PUBLIC "-//W3C//DTD SVG 1.1//EN" "http://www.w3.org/Graphics/SVG/1.1/DTD/svg11.dtd">
<svg version="1.1" id="图层_1" xmlns="http://www.w3.org/2000/svg" xmlns:xlink="http://www.w3.org/1999/xlink" x="0px" y="0px"
	 viewBox="0 0 1024 1024" style="enable-background:new 0 0 1024 1024;" xml:space="preserve">
<style type="text/css">
	.st0{fill:#333333;}
</style>
<g>
	<path class="st0" d="M615.538,641.373h118.009c6.86-0.529,12.16-6.253,12.16-13.134c0-6.884-5.3-12.605-12.16-13.134H615.538
		c-7.258,0-13.137,5.88-13.137,13.134C602.4,635.493,608.28,641.373,615.538,641.373"/>
	<path class="st0" d="M615.538,616.835c-6.176,0.156-11.102,5.205-11.102,11.384c0,6.175,4.927,11.224,11.102,11.379h118.009
		c6.294,0,11.397-5.103,11.397-11.4c0-6.294-5.103-11.397-11.397-11.397H615.538V616.835z M733.546,643.106H615.538
		c-8.225,0-14.892-6.666-14.892-14.888c0-8.225,6.667-14.892,14.892-14.892h118.009c7.939,0.39,14.179,6.942,14.179,14.892
		C747.725,636.168,741.485,642.716,733.546,643.106L733.546,643.106z M615.538,542.818h118.009c3.487,0,6.833-1.387,9.3-3.854
		c2.463-2.467,3.85-5.812,3.848-9.3c0.003-3.488-1.381-6.837-3.848-9.303c-2.467-2.467-5.813-3.855-9.3-3.855H615.538
		c-3.478-0.01-6.813,1.361-9.276,3.81c-2.463,2.453-3.851,5.781-3.861,9.256v0.075c-0.017,3.492,1.357,6.847,3.824,9.321
		C608.691,541.441,612.042,542.825,615.538,542.818"/>
	<path class="st0" d="M615.538,518.241c-3.027,0-5.925,1.204-8.062,3.341c-2.138,2.141-3.335,5.042-3.332,8.065
		c0,6.291,5.099,11.394,11.394,11.394h118.009c4.119,0.074,7.96-2.08,10.043-5.636c2.084-3.559,2.084-7.963,0.003-11.518
		c-2.079-3.559-5.917-5.717-10.039-5.646H615.538z M733.546,544.516H615.538c-8.225,0-14.892-6.667-14.892-14.892
		c0-8.225,6.667-14.892,14.892-14.892h118.009c5.483-0.254,10.664,2.528,13.483,7.241c2.819,4.709,2.819,10.59,0,15.303
		C744.21,541.987,739.029,544.77,733.546,544.516L733.546,544.516z M615.538,444.217h118.009c7.254,0,13.134-5.88,13.134-13.134
		c0-7.254-5.88-13.134-13.134-13.134H615.538c-3.474-0.01-6.81,1.357-9.276,3.807c-2.463,2.449-3.851,5.778-3.861,9.252v0.075
		c-0.01,3.487,1.371,6.833,3.834,9.3C608.7,442.85,612.049,444.231,615.538,444.217"/>
	<path class="st0" d="M615.538,419.68c-6.223,0.112-11.207,5.185-11.207,11.407c0,6.219,4.984,11.292,11.207,11.404h118.009
		c6.283-0.021,11.366-5.124,11.363-11.407c0.02-6.297-5.069-11.418-11.363-11.438H615.538V419.68z M733.546,445.954H615.538
		c-8.225,0-14.892-6.667-14.892-14.892c0-8.224,6.667-14.891,14.892-14.891h118.009c7.926,0.407,14.145,6.956,14.145,14.891
		C747.691,439.002,741.472,445.547,733.546,445.954L733.546,445.954z M445.097,444.217H314.066c-7.264,0-13.154,5.89-13.154,13.157
		c0,7.268,5.89,13.158,13.154,13.158h131.032c3.474,0.007,6.813-1.365,9.276-3.814c2.463-2.449,3.85-5.778,3.861-9.252v-0.109
		c0.01-3.474-1.36-6.813-3.81-9.276c-2.449-2.463-5.774-3.854-9.252-3.864H445.097"/>
	<path class="st0" d="M314.063,445.992c-4.113-0.075-7.947,2.079-10.026,5.632c-2.08,3.549-2.08,7.947,0,11.499
		c2.079,3.552,5.913,5.707,10.026,5.632h131.031c6.287,0,11.384-5.096,11.384-11.384c0-6.283-5.097-11.379-11.384-11.379H314.063z
		 M445.097,472.263H314.066c-8.22,0-14.888-6.664-14.888-14.888c0-8.224,6.667-14.888,14.888-14.888h131.032
		c7.942,0.387,14.179,6.938,14.179,14.888C459.276,465.325,453.04,471.876,445.097,472.263L445.097,472.263z M445.097,325.991
		H314.066c-3.48,0-6.823,1.387-9.286,3.85c-2.46,2.467-3.844,5.809-3.841,9.293c0,7.251,5.877,13.128,13.127,13.131h131.032
		c7.234,0.02,13.114-5.829,13.137-13.06v-0.111c0.01-3.474-1.36-6.81-3.81-9.273c-2.449-2.467-5.778-3.855-9.252-3.864h-0.075"/>
	<path class="st0" d="M314.063,327.688c-6.308,0-11.421,5.116-11.421,11.424c0,6.308,5.113,11.421,11.421,11.421h131.031
		c6.274,0,11.366-5.165,11.366-11.437c0-6.284-5.086-11.384-11.366-11.407H314.063z M445.097,354H314.066
		c-8.231,0-14.905-6.678-14.905-14.908c0-8.235,6.674-14.908,14.905-14.908h131.032c8.234,0,14.908,6.673,14.908,14.908
		C460.006,347.322,453.332,354,445.097,354L445.097,354z M445.097,354"/>
	<path class="st0" d="M536.899,785.948h-78.593V628.201c0-21.772-17.677-39.487-39.334-39.487h-78.709
		c-21.661,0-39.3,17.715-39.3,39.487v157.71h-78.631V246.987c0-21.732,17.64-39.483,39.334-39.483h235.9
		c21.698,0,39.334,17.751,39.334,39.483V785.948z M431.997,785.948H327.201V628.201c0-7.227,5.903-13.171,13.063-13.171h78.597
		c7.261,0.017,13.137,5.911,13.137,13.171V785.948z M759.78,319.347H563.106v-72.32c0.082-36.26-29.244-65.727-65.5-65.829h-235.94
		c-36.273,0.062-65.632,29.515-65.571,65.792v552.136c-0.007,3.485,1.378,6.831,3.841,9.294c2.463,2.463,5.809,3.847,9.293,3.84
		h340.805c7.241-0.017,13.1-5.893,13.1-13.134V345.66h196.569c21.661,0,39.334,17.715,39.334,39.409v400.877h-70.844l-0.516-0.037
		H609.664c-3.481,0-6.824,1.387-9.283,3.85c-2.463,2.467-3.844,5.806-3.841,9.29c0,7.25,5.877,13.127,13.124,13.13h0.116v0.034
		h202.394c7.251-0.017,13.134-5.877,13.175-13.128V385.031C825.348,348.795,795.901,319.347,759.78,319.347L759.78,319.347z
		 M759.78,319.347"/>
	<path class="st0" d="M328.9,784.174h101.322V628.239c0.01-3.016-1.177-5.911-3.301-8.047c-2.124-2.138-5.011-3.346-8.024-3.356
		h-78.634c-6.281,0.024-11.363,5.12-11.363,11.404V784.174z M433.731,787.723H325.395V628.201
		c-0.003-8.218,6.654-14.885,14.872-14.901h78.597c3.953-0.003,7.743,1.568,10.532,4.363c2.793,2.796,4.353,6.589,4.339,10.539
		v159.521H433.731z M460.077,784.174h75.092V247.027c0.024-20.788-16.815-37.654-37.6-37.675H261.666
		c-20.788,0-37.641,16.85-37.641,37.635v537.261h75.164V628.201c0-22.733,18.451-41.214,41.071-41.214h78.668
		c22.692,0,41.142,18.481,41.142,41.214v155.973H460.077z M538.674,787.723h-82.139V628.201c0-20.771-16.866-37.712-37.638-37.712
		h-78.634c-20.738,0-37.566,16.941-37.566,37.712v159.481h-82.136V246.987c0-22.729,18.451-41.181,41.105-41.181h235.9
		c22.655,0,41.071,18.451,41.071,41.181V787.72h0.037V787.723z M611.368,810.486H812.14c3.013,0.021,5.914-1.157,8.061-3.274
		c2.144-2.118,3.363-5.001,3.38-8.018V385.105c0-35.313-28.636-64.021-63.841-64.021H561.369v-74.097
		c0-35.273-28.636-63.981-63.8-63.981H261.666c-35.205,0-63.838,28.708-63.838,63.981v552.058c0,6.283,5.086,11.383,11.37,11.404
		h340.805c6.284-0.017,11.366-5.12,11.363-11.404v-455.12h198.299c22.692,0,41.142,18.451,41.142,41.18v402.577H609.661
		c-6.287,0.36-11.092,5.747-10.735,12.034c0.332,5.785,4.95,10.403,10.735,10.735l1.737,0.037h-0.03V810.486z M812.14,813.991
		l-204.128-0.146c-7.695-1.052-13.293-7.831-12.869-15.584c0.424-7.753,6.728-13.88,14.492-14.087h187.672V385.105
		c0.044-20.788-16.781-37.671-37.57-37.716H564.834v451.696c0,8.228-6.64,14.902-14.835,14.902H209.198
		c-8.204-0.041-14.83-6.701-14.834-14.902V247.027c0-37.206,30.098-67.403,67.305-67.526h235.9
		c37.125,0,67.305,30.258,67.305,67.488v70.59h194.862c37.23,0.102,67.346,30.306,67.346,67.526v414.017
		C826.998,807.331,820.344,813.95,812.14,813.991L812.14,813.991z M812.14,813.991"/>
</g>
</svg>
