<?xml version="1.0" encoding="utf-8"?>
<!-- Generator: Adobe Illustrator 18.0.0, SVG Export Plug-In . SVG Version: 6.00 Build 0)  -->
<!DOCTYPE svg PUBLIC "-//W3C//DTD SVG 1.1//EN" "http://www.w3.org/Graphics/SVG/1.1/DTD/svg11.dtd">
<svg version="1.1" id="图层_1" xmlns="http://www.w3.org/2000/svg" xmlns:xlink="http://www.w3.org/1999/xlink" x="0px" y="0px"
	 viewBox="0 0 1024 1024" style="enable-background:new 0 0 1024 1024;" xml:space="preserve">
<style type="text/css">
	.st0{fill-rule:evenodd;clip-rule:evenodd;}
</style>
<g>
	<polygon class="st0" points="508.874,66.961 69.516,487.526 89.846,526.312 508.874,126.896 927.682,526.238 948.233,487.307 
		508.874,66.961 	"/>
	<path class="st0" d="M788.786,466.194c-19.941,0-20.289,20.138-20.289,20.138s0,314.459,0,322.069
		c0,10.227-6.476,17.435-17.618,17.435c-12.075,0-107.164,0-124.588,0c-10.136,0-17.563-7.025-17.563-16.85
		c0-9.02-0.038-192.664-0.038-214.033c0-16.099-12.257-28.723-28.686-28.723c-12.075,0-120.125,0.036-142.042,0.036
		c-20.71,0-28.76,12.806-28.76,28.906c0,17.563,0,212.515,0,212.515c0.073,18.588-17.051,18.162-17.051,18.162
		s-108.306,0.014-125.413,0.014c-17.106,0-17.252-17.298-17.252-17.298V486.172c0,0-0.366-19.978-19.978-19.978
		s-19.96,20.398-19.96,20.398s-0.275,299.763-0.275,335.548c0,27.845,15.587,43.653,45.334,43.653c24.332,0,102.636,0,149.726,0
		c30.187,0,44.567-15.314,44.567-44.403c0-17.014,0.036-172.247,0.036-194.75c0-13.667,7.207-20.454,20.051-20.454
		s60.355,0,80.022,0c15.094,0,19.941,9.934,19.941,20.016c0,8.763-0.22,194.694-0.22,194.694c0,29.309,15.625,44.897,45.153,44.897
		c18.77,0,102.085,0,149.506,0c29.857,0,45.047-15.662,45.047-44.495c0-14.929,0-334.954,0-334.954S808.729,466.194,788.786,466.194
		L788.786,466.194z"/>
</g>
</svg>
