<?xml version="1.0" encoding="utf-8"?>
<!-- Generator: Adobe Illustrator 18.0.0, SVG Export Plug-In . SVG Version: 6.00 Build 0)  -->
<!DOCTYPE svg PUBLIC "-//W3C//DTD SVG 1.1//EN" "http://www.w3.org/Graphics/SVG/1.1/DTD/svg11.dtd">
<svg version="1.1" id="图层_1" xmlns="http://www.w3.org/2000/svg" xmlns:xlink="http://www.w3.org/1999/xlink" x="0px" y="0px"
	 viewBox="0 0 1024 1024" style="enable-background:new 0 0 1024 1024;" xml:space="preserve">
<style type="text/css">
	.st0{stroke:#000000;stroke-width:8;stroke-miterlimit:10;}
	.st1{fill:#F1F2F2;stroke:#000000;stroke-width:8;stroke-miterlimit:10;}
</style>
<g>
	<g>
		<path class="st0" d="M763.131,865.363H256.127c-2.395,0-4.332-1.937-4.332-4.333V163.444c0-2.395,1.937-4.332,4.332-4.332h507.004
			c2.393,0,4.332,1.937,4.332,4.332v697.587C767.463,863.426,765.525,865.363,763.131,865.363z M260.461,856.697h498.337v-688.92
			H260.461V856.697z"/>
	</g>
	<g>
		<rect x="327.124" y="234.444" class="st1" width="121.342" height="121.342"/>
		<path class="st0" d="M448.466,360.12H327.124c-2.394,0-4.334-1.937-4.334-4.334V234.444c0-2.395,1.939-4.334,4.334-4.334h121.342
			c2.395,0,4.335,1.938,4.335,4.334v121.342C452.801,358.183,450.861,360.12,448.466,360.12z M331.459,351.454h112.675V238.778
			H331.459V351.454z"/>
	</g>
	<g>
		<path class="st0" d="M695.244,262.477H485.795c-2.394,0-4.333-1.939-4.333-4.334c0-2.395,1.938-4.335,4.333-4.335h209.449
			c2.395,0,4.336,1.939,4.336,4.335C699.579,260.537,697.639,262.477,695.244,262.477z"/>
	</g>
	<g>
		<path class="st0" d="M695.244,336.871H485.795c-2.394,0-4.333-1.937-4.333-4.332s1.938-4.334,4.333-4.334h209.449
			c2.395,0,4.336,1.938,4.336,4.334S697.639,336.871,695.244,336.871z"/>
	</g>
	<g>
		<path class="st0" d="M580.045,423.446H327.124c-2.394,0-4.334-1.938-4.334-4.333c0-2.396,1.939-4.335,4.334-4.335h252.921
			c2.395,0,4.333,1.938,4.333,4.335C584.379,421.507,582.441,423.446,580.045,423.446z"/>
	</g>
	<g>
		<path class="st0" d="M580.045,498.196H327.124c-2.394,0-4.334-1.938-4.334-4.334s1.939-4.333,4.334-4.333h252.921
			c2.395,0,4.333,1.937,4.333,4.333S582.441,498.196,580.045,498.196z"/>
	</g>
	<g>
		<path class="st0" d="M574.63,572.947H327.124c-2.394,0-4.334-1.938-4.334-4.334c0-2.395,1.939-4.333,4.334-4.333H574.63
			c2.395,0,4.334,1.938,4.334,4.333C578.964,571.009,577.026,572.947,574.63,572.947z"/>
	</g>
	<g>
		<path class="st0" d="M558.506,647.697H327.124c-2.394,0-4.334-1.937-4.334-4.333c0-2.394,1.939-4.333,4.334-4.333h231.382
			c2.395,0,4.333,1.939,4.333,4.333C562.839,645.759,560.901,647.697,558.506,647.697z"/>
	</g>
	<g>
		<path class="st0" d="M420.795,722.448h-86.371c-2.395,0-4.334-1.938-4.334-4.334c0-2.395,1.938-4.333,4.334-4.333h86.371
			c2.395,0,4.334,1.937,4.334,4.333C425.129,720.51,423.19,722.448,420.795,722.448z"/>
	</g>
</g>
</svg>
