<?xml version="1.0" encoding="utf-8"?>
<!-- Generator: Adobe Illustrator 18.0.0, SVG Export Plug-In . SVG Version: 6.00 Build 0)  -->
<!DOCTYPE svg PUBLIC "-//W3C//DTD SVG 1.1//EN" "http://www.w3.org/Graphics/SVG/1.1/DTD/svg11.dtd">
<svg version="1.1" id="图层_1" xmlns="http://www.w3.org/2000/svg" xmlns:xlink="http://www.w3.org/1999/xlink" x="0px" y="0px"
	 viewBox="0 0 1024 1024" style="enable-background:new 0 0 1024 1024;" xml:space="preserve">
<style type="text/css">
	.st0{fill-rule:evenodd;clip-rule:evenodd;}
</style>
<g>
	<polygon class="st0" points="197.987,195.502 276.515,195.502 276.515,274.029 197.987,274.029 197.987,195.502 197.987,195.502 	
		"/>
	<polygon class="st0" points="394.306,195.502 826.206,195.502 826.206,274.029 394.306,274.029 394.306,195.502 394.306,195.502 	
		"/>
	<polygon class="st0" points="197.987,470.348 276.515,470.348 276.515,548.875 197.987,548.875 197.987,470.348 197.987,470.348 	
		"/>
	<polygon class="st0" points="394.306,470.348 826.206,470.348 826.206,548.875 394.306,548.875 394.306,470.348 394.306,470.348 	
		"/>
	<polygon class="st0" points="197.987,745.193 276.515,745.193 276.515,823.721 197.987,823.721 197.987,745.193 197.987,745.193 	
		"/>
	<polygon class="st0" points="394.306,745.193 826.206,745.193 826.206,823.721 394.306,823.721 394.306,745.193 394.306,745.193 	
		"/>
</g>
</svg>
