<?xml version="1.0" encoding="utf-8"?>
<!-- Generator: Adobe Illustrator 18.0.0, SVG Export Plug-In . SVG Version: 6.00 Build 0)  -->
<!DOCTYPE svg PUBLIC "-//W3C//DTD SVG 1.1//EN" "http://www.w3.org/Graphics/SVG/1.1/DTD/svg11.dtd">
<svg version="1.1" id="图层_1" xmlns="http://www.w3.org/2000/svg" xmlns:xlink="http://www.w3.org/1999/xlink" x="0px" y="0px"
	 viewBox="0 0 1024 1024" style="enable-background:new 0 0 1024 1024;" xml:space="preserve">
<style type="text/css">
	.st0{fill-rule:evenodd;clip-rule:evenodd;fill:#ADADAD;}
</style>
<g>
	<path class="st0" d="M420.594,490.752c-54.269,0.163-106.355-21.353-144.688-59.768c-38.48-38.141-60.066-90.114-59.931-144.294
		c0-54.527,21.287-105.78,59.931-144.326c38.333-38.415,90.419-59.931,144.688-59.768c54.658,0,106.042,21.222,144.687,59.768
		c38.485,38.151,60.071,90.137,59.931,144.326c0,54.495-21.287,105.781-59.931,144.294
		C526.946,469.396,474.861,490.911,420.594,490.752L420.594,490.752z M420.594,145.638
		c-77.968-0.018-141.232,63.086-141.413,141.052c0.199,77.954,63.459,141.038,141.413,141.019
		c77.953,0.018,141.213-63.065,141.412-141.019C561.826,208.724,498.561,145.62,420.594,145.638L420.594,145.638z"/>
	<path class="st0" d="M653.377,726.942c0-128.051-104.438-232.194-232.783-232.194c-128.379,0-232.817,104.143-232.817,232.194
		c-0.036,17.423-14.18,31.523-31.603,31.505c-17.423,0.018-31.567-14.082-31.603-31.505c-0.057-78.35,31.145-153.485,86.688-208.745
		c26.977-26.976,58.931-48.463,94.089-63.273c36.465-15.409,75.659-23.316,115.246-23.251c39.954,0,78.696,7.86,115.212,23.251
		c35.156,14.8,67.109,36.276,94.089,63.24c55.551,55.268,86.754,130.417,86.689,208.778c-0.036,17.423-14.18,31.523-31.604,31.505
		C667.558,758.465,653.413,744.365,653.377,726.942L653.377,726.942z M614.962,466.518c0-15.065,12.969-27.248,28.983-27.248
		c71.46,0,129.623-54.659,129.623-121.829c0-67.202-58.163-121.893-129.623-121.893c-16.014,0-28.983-12.183-28.983-27.215
		c0-15.064,12.969-27.248,28.983-27.248c50.107,0,97.201,18.339,132.636,51.646c35.435,33.307,54.921,77.617,54.921,124.677
		c0,47.127-19.486,91.371-54.921,124.711c-35.435,33.306-82.529,51.646-132.636,51.646
		C627.931,493.765,614.962,481.549,614.962,466.518L614.962,466.518z"/>
	<path class="st0" d="M886.325,725.042c-16.015,0-28.983-12.183-28.983-27.215c0-112.135-95.072-203.374-211.955-203.374
		c-15.982,0-28.951-12.183-28.951-27.215c0-15.064,12.969-27.248,28.951-27.248c36.68,0,72.213,6.943,105.65,20.599
		c31.867,12.952,60.967,31.871,85.738,55.74c24.325,23.298,43.851,51.135,57.475,81.939c13.951,31.669,21.025,65.172,21.025,99.559
		C915.275,712.892,902.307,725.042,886.325,725.042L886.325,725.042z"/>
</g>
</svg>
