<?xml version="1.0" encoding="utf-8"?>
<!-- Generator: Adobe Illustrator 18.0.0, SVG Export Plug-In . SVG Version: 6.00 Build 0)  -->
<!DOCTYPE svg PUBLIC "-//W3C//DTD SVG 1.1//EN" "http://www.w3.org/Graphics/SVG/1.1/DTD/svg11.dtd">
<svg version="1.1" id="图层_1" xmlns="http://www.w3.org/2000/svg" xmlns:xlink="http://www.w3.org/1999/xlink" x="0px" y="0px"
	 viewBox="0 0 1024 1024" style="enable-background:new 0 0 1024 1024;" xml:space="preserve">
<style type="text/css">
	.st0{stroke:#000000;stroke-width:8;stroke-miterlimit:10;}
	.st1{fill:#F1F2F2;stroke:#000000;stroke-width:8;stroke-miterlimit:10;}
</style>
<g>
	<path class="st0" d="M822.977,744.037H199.179c-1.994,0-3.607-1.615-3.607-3.607V306.822c0-1.994,1.613-3.606,3.607-3.606h623.799
		c1.994,0,3.606,1.612,3.606,3.606V740.43C826.583,742.422,824.971,744.037,822.977,744.037z M202.785,736.821H819.37V310.429
		H202.785V736.821z"/>
</g>
<g>
	<path class="st0" d="M511.085,873.6c-1.994,0-3.607-1.614-3.607-3.609V740.43c0-1.994,1.613-3.609,3.607-3.609
		c1.994,0,3.606,1.615,3.606,3.609v129.561C514.691,871.987,513.079,873.6,511.085,873.6z"/>
</g>
<g>
	<path class="st0" d="M511.085,953.466c-24.009,0-43.545-19.534-43.545-43.543c0-24.006,19.536-43.537,43.545-43.537
		c24.002,0,43.53,19.531,43.53,43.537C554.615,933.932,535.087,953.466,511.085,953.466z M511.085,873.6
		c-20.033,0-36.331,16.295-36.331,36.323c0,20.031,16.299,36.331,36.331,36.331c20.025,0,36.316-16.299,36.316-36.331
		C547.401,889.895,531.11,873.6,511.085,873.6z"/>
</g>
<g>
	<path class="st1" d="M870.576,279.586c0-15.032-12.19-27.228-27.232-27.228H178.815c-15.041,0-27.232,12.196-27.232,27.228l0,0
		c0,15.042,12.191,27.236,27.232,27.236h664.528C858.385,306.822,870.576,294.628,870.576,279.586L870.576,279.586z"/>
	<path class="st0" d="M843.343,310.429H178.815c-17.007,0-30.839-13.837-30.839-30.843c0-17.001,13.832-30.835,30.839-30.835
		h664.528c17.008,0,30.84,13.834,30.84,30.835C874.183,296.592,860.351,310.429,843.343,310.429z M178.815,255.965
		c-13.026,0-23.625,10.595-23.625,23.62c0,13.03,10.599,23.63,23.625,23.63h664.528c13.027,0,23.625-10.6,23.625-23.63
		c0-13.025-10.599-23.62-23.625-23.62H178.815z"/>
</g>
<g>
	<path class="st0" d="M499.599,641.539L499.599,641.539c-0.958,0-1.875-0.379-2.55-1.056l-165.75-165.753l-89.273,89.273
		c-1.41,1.41-3.692,1.41-5.101,0c-1.409-1.41-1.409-3.691,0-5.101l91.823-91.822c1.354-1.354,3.748-1.354,5.101,0l165.75,165.751
		L719.684,412.75c1.409-1.408,3.691-1.408,5.101,0c1.41,1.408,1.41,3.691,0,5.101L502.148,640.484
		C501.472,641.161,500.557,641.539,499.599,641.539z"/>
</g>
<g>
	<polygon class="st1" points="692.381,383.943 771.926,362.625 750.614,442.168 	"/>
	<path class="st0" d="M750.614,445.777c-0.943,0-1.863-0.371-2.55-1.058l-58.234-58.225c-0.91-0.913-1.266-2.241-0.933-3.484
		c0.334-1.244,1.308-2.217,2.551-2.551l79.543-21.317c1.259-0.339,2.573,0.02,3.484,0.933c0.913,0.912,1.269,2.24,0.935,3.483
		l-21.312,79.545c-0.334,1.244-1.307,2.215-2.55,2.55C751.239,445.737,750.924,445.777,750.614,445.777z M699.35,385.811
		l49.399,49.392l18.078-67.477L699.35,385.811z"/>
</g>
<g>
	<g>
		<path class="st0" d="M332.056,407.465c-1.994,0-3.607-1.613-3.607-3.605v-14.429c0-1.994,1.613-3.607,3.607-3.607
			c1.994,0,3.607,1.613,3.607,3.607v14.429C335.663,405.852,334.05,407.465,332.056,407.465z"/>
	</g>
	<g>
		<path class="st0" d="M332.056,645.563c-1.994,0-3.607-1.613-3.607-3.607v-27.211c0-1.994,1.613-3.607,3.607-3.607
			c1.994,0,3.607,1.613,3.607,3.607v27.211C335.663,643.95,334.05,645.563,332.056,645.563z M332.056,597.945
			c-1.994,0-3.607-1.613-3.607-3.605v-27.211c0-1.994,1.613-3.607,3.607-3.607c1.994,0,3.607,1.613,3.607,3.607v27.211
			C335.663,596.332,334.05,597.945,332.056,597.945z M332.056,550.326c-1.994,0-3.607-1.613-3.607-3.605v-27.211
			c0-1.994,1.613-3.609,3.607-3.609c1.994,0,3.607,1.615,3.607,3.609v27.211C335.663,548.712,334.05,550.326,332.056,550.326z
			 M332.056,502.706c-1.994,0-3.607-1.613-3.607-3.607v-27.211c0-1.994,1.613-3.607,3.607-3.607c1.994,0,3.607,1.613,3.607,3.607
			v27.211C335.663,501.093,334.05,502.706,332.056,502.706z M332.056,455.086c-1.994,0-3.607-1.613-3.607-3.607v-27.213
			c0-1.992,1.613-3.606,3.607-3.606c1.994,0,3.607,1.613,3.607,3.606v27.213C335.663,453.473,334.05,455.086,332.056,455.086z"/>
	</g>
	<g>
		<path class="st0" d="M332.056,680.398c-1.994,0-3.607-1.613-3.607-3.606v-14.427c0-1.995,1.613-3.609,3.607-3.609
			c1.994,0,3.607,1.614,3.607,3.609v14.427C335.663,678.785,334.05,680.398,332.056,680.398z"/>
	</g>
</g>
<g>
	<g>
		<path class="st0" d="M499.781,407.465c-1.994,0-3.607-1.613-3.607-3.605v-14.429c0-1.994,1.613-3.607,3.607-3.607
			s3.607,1.613,3.607,3.607v14.429C503.389,405.852,501.775,407.465,499.781,407.465z"/>
	</g>
	<g>
		<path class="st0" d="M499.781,645.563c-1.994,0-3.607-1.613-3.607-3.607v-27.211c0-1.994,1.613-3.607,3.607-3.607
			s3.607,1.613,3.607,3.607v27.211C503.389,643.95,501.775,645.563,499.781,645.563z M499.781,597.945
			c-1.994,0-3.607-1.613-3.607-3.605v-27.211c0-1.994,1.613-3.607,3.607-3.607s3.607,1.613,3.607,3.607v27.211
			C503.389,596.332,501.775,597.945,499.781,597.945z M499.781,550.326c-1.994,0-3.607-1.613-3.607-3.605v-27.211
			c0-1.994,1.613-3.609,3.607-3.609s3.607,1.615,3.607,3.609v27.211C503.389,548.712,501.775,550.326,499.781,550.326z
			 M499.781,502.706c-1.994,0-3.607-1.613-3.607-3.607v-27.211c0-1.994,1.613-3.607,3.607-3.607s3.607,1.613,3.607,3.607v27.211
			C503.389,501.093,501.775,502.706,499.781,502.706z M499.781,455.086c-1.994,0-3.607-1.613-3.607-3.607v-27.213
			c0-1.992,1.613-3.606,3.607-3.606s3.607,1.613,3.607,3.606v27.213C503.389,453.473,501.775,455.086,499.781,455.086z"/>
	</g>
	<g>
		<path class="st0" d="M499.781,680.398c-1.994,0-3.607-1.613-3.607-3.606v-14.427c0-1.995,1.613-3.609,3.607-3.609
			s3.607,1.614,3.607,3.609v14.427C503.389,678.785,501.775,680.398,499.781,680.398z"/>
	</g>
</g>
<g>
	<g>
		<path class="st0" d="M722.234,433.335c-1.992,0-3.606-1.613-3.606-3.607v-14.429c0-1.992,1.614-3.605,3.606-3.605
			c1.995,0,3.607,1.613,3.607,3.605v14.429C725.841,431.722,724.23,433.335,722.234,433.335z"/>
	</g>
	<g>
		<path class="st0" d="M722.234,643.459c-1.992,0-3.606-1.612-3.606-3.607v-30.018c0-1.994,1.614-3.607,3.606-3.607
			c1.995,0,3.607,1.613,3.607,3.607v30.018C725.841,641.848,724.23,643.459,722.234,643.459z M722.234,590.929
			c-1.992,0-3.606-1.612-3.606-3.607v-30.018c0-1.994,1.614-3.606,3.606-3.606c1.995,0,3.607,1.612,3.607,3.606v30.018
			C725.841,589.317,724.23,590.929,722.234,590.929z M722.234,538.399c-1.992,0-3.606-1.613-3.606-3.607v-30.018
			c0-1.994,1.614-3.607,3.606-3.607c1.995,0,3.607,1.613,3.607,3.607v30.018C725.841,536.786,724.23,538.399,722.234,538.399z
			 M722.234,485.869c-1.992,0-3.606-1.613-3.606-3.607v-30.018c0-1.994,1.614-3.607,3.606-3.607c1.995,0,3.607,1.613,3.607,3.607
			v30.018C725.841,484.255,724.23,485.869,722.234,485.869z"/>
	</g>
	<g>
		<path class="st0" d="M722.234,680.398c-1.992,0-3.606-1.613-3.606-3.606v-14.427c0-1.995,1.614-3.609,3.606-3.609
			c1.995,0,3.607,1.614,3.607,3.609v14.427C725.841,678.785,724.23,680.398,722.234,680.398z"/>
	</g>
</g>
<g>
	<path class="st0" d="M239.476,598.03c-1.994,0-3.607-1.613-3.607-3.607v-65.941c0-1.994,1.613-3.605,3.607-3.605
		c1.994,0,3.607,1.612,3.607,3.605v65.941C243.083,596.417,241.469,598.03,239.476,598.03z"/>
</g>
</svg>
