<?xml version="1.0" encoding="utf-8"?>
<!-- Generator: Adobe Illustrator 18.0.0, SVG Export Plug-In . SVG Version: 6.00 Build 0)  -->
<!DOCTYPE svg PUBLIC "-//W3C//DTD SVG 1.1//EN" "http://www.w3.org/Graphics/SVG/1.1/DTD/svg11.dtd">
<svg version="1.1" id="图层_1" xmlns="http://www.w3.org/2000/svg" xmlns:xlink="http://www.w3.org/1999/xlink" x="0px" y="0px"
	 viewBox="0 0 1024 1024" style="enable-background:new 0 0 1024 1024;" xml:space="preserve">
<style type="text/css">
	.st0{stroke:#000000;stroke-width:8;stroke-miterlimit:10;}
	.st1{fill:#F1F2F2;stroke:#000000;stroke-width:8;stroke-miterlimit:10;}
</style>
<g>
	<g>
		<path class="st0" d="M734.603,889.42H302.504c-2.387,0-4.32-1.932-4.32-4.318V293.542c0-2.385,1.932-4.317,4.32-4.317h431.846
			c2.387,0,4.572,1.932,4.572,4.317v591.561C738.921,887.488,736.99,889.42,734.603,889.42z M306.822,880.783h423.462v-582.92
			H306.822V880.783z"/>
	</g>
	<g>
		<path class="st1" d="M305.005,153.633h-20.335h-2.505c-38.637,0-69.958,31.324-69.958,69.952v472.418h90.298V293.542h2.501
			c38.631,0,69.954-31.312,69.954-69.956C374.959,184.957,343.636,153.633,305.005,153.633z"/>
		<path class="st0" d="M302.504,700.323h-90.298c-2.387,0-4.319-1.932-4.319-4.319V223.586c0-40.952,33.321-74.27,74.278-74.27
			h22.841c40.956,0,74.273,33.318,74.273,74.27c0,40.349-32.34,73.286-72.456,74.254v398.164
			C306.822,698.391,304.891,700.323,302.504,700.323z M216.524,691.684h81.66V293.542c0-2.385,1.932-4.317,4.32-4.317h2.501
			c36.189,0,65.635-29.447,65.635-65.639c0-36.192-29.447-65.631-65.635-65.631h-22.841c-36.195,0-65.64,29.439-65.64,65.631
			V691.684z"/>
	</g>
	<g>
		<path class="st0" d="M734.349,297.863H305.005c-2.388,0-4.319-1.932-4.319-4.321c0-2.385,1.931-4.317,4.319-4.317
			c36.189,0,65.635-29.447,65.635-65.639c0-36.192-29.447-65.631-65.635-65.631c-2.388,0-4.319-1.932-4.319-4.321
			c0-2.385,1.931-4.318,4.319-4.318h429.345c40.957,0,74.278,33.318,74.278,74.27C808.627,264.541,775.306,297.863,734.349,297.863z
			 M339.748,289.225h394.602c36.194,0,65.64-29.447,65.64-65.639c0-36.192-29.447-65.631-65.64-65.631H339.748
			c23.499,12.485,39.53,37.223,39.53,65.631C379.278,251.998,363.241,276.734,339.748,289.225z"/>
	</g>
	<g>
		<path class="st0" d="M425.123,373.692h-50.164c-2.387,0-4.319-1.932-4.319-4.317c0-2.389,1.932-4.321,4.319-4.321h50.164
			c2.387,0,4.319,1.932,4.319,4.321C429.443,371.761,427.511,373.692,425.123,373.692z"/>
	</g>
	<g>
		<path class="st0" d="M543.635,373.692h-50.169c-2.387,0-4.319-1.932-4.319-4.317c0-2.389,1.931-4.321,4.319-4.321h50.169
			c2.387,0,4.319,1.932,4.319,4.321C547.954,371.761,546.022,373.692,543.635,373.692z"/>
	</g>
	<g>
		<path class="st0" d="M662.138,373.692h-50.164c-2.387,0-4.32-1.932-4.32-4.317c0-2.389,1.933-4.321,4.32-4.321h50.164
			c2.387,0,4.32,1.932,4.32,4.321C666.458,371.761,664.525,373.692,662.138,373.692z"/>
	</g>
	<g>
		<path class="st0" d="M685.982,443.739H351.123c-2.387,0-4.32-1.932-4.32-4.319s1.932-4.32,4.32-4.32h334.859
			c2.387,0,4.318,1.932,4.318,4.32S688.37,443.739,685.982,443.739z"/>
	</g>
	<g>
		<path class="st0" d="M685.982,513.785H351.123c-2.387,0-4.32-1.932-4.32-4.319c0-2.387,1.932-4.32,4.32-4.32h334.859
			c2.387,0,4.318,1.932,4.318,4.32C690.301,511.853,688.37,513.785,685.982,513.785z"/>
	</g>
	<g>
		<path class="st0" d="M685.982,583.831H351.123c-2.387,0-4.32-1.932-4.32-4.32s1.932-4.319,4.32-4.319h334.859
			c2.387,0,4.318,1.932,4.318,4.319S688.37,583.831,685.982,583.831z"/>
	</g>
	<g>
		<path class="st0" d="M685.982,653.877H351.123c-2.387,0-4.32-1.932-4.32-4.32s1.932-4.319,4.32-4.319h334.859
			c2.387,0,4.318,1.932,4.318,4.319S688.37,653.877,685.982,653.877z"/>
	</g>
	<g>
		<path class="st0" d="M685.982,723.923H351.123c-2.387,0-4.32-1.932-4.32-4.317c0-2.389,1.932-4.321,4.32-4.321h334.859
			c2.387,0,4.318,1.932,4.318,4.321C690.301,721.991,688.37,723.923,685.982,723.923z"/>
	</g>
	<g>
		<path class="st0" d="M568.931,793.969H351.123c-2.387,0-4.32-1.932-4.32-4.318c0-2.389,1.932-4.321,4.32-4.321h217.807
			c2.386,0,4.318,1.932,4.318,4.321C573.249,792.037,571.317,793.969,568.931,793.969z"/>
	</g>
</g>
</svg>
