<?xml version="1.0" encoding="utf-8"?>
<!-- Generator: Adobe Illustrator 18.0.0, SVG Export Plug-In . SVG Version: 6.00 Build 0)  -->
<!DOCTYPE svg PUBLIC "-//W3C//DTD SVG 1.1//EN" "http://www.w3.org/Graphics/SVG/1.1/DTD/svg11.dtd">
<svg version="1.1" id="图层_1" xmlns="http://www.w3.org/2000/svg" xmlns:xlink="http://www.w3.org/1999/xlink" x="0px" y="0px"
	 viewBox="0 0 1024 1024" style="enable-background:new 0 0 1024 1024;" xml:space="preserve">
<style type="text/css">
	.st0{fill-rule:evenodd;clip-rule:evenodd;}
</style>
<g>
	<path class="st0" d="M509.202,64.254c-168.697-3.499-312.916,143.351-308.549,313.795c0,64.677,18.358,113.627,37.591,151.21
		c6.991,11.367,15.727,23.603,25.347,34.96c20.103,21.857,30.592,33.216,51.564,51.572l7.868,6.991
		c31.47,28.848,42.827,38.461,46.328,62.062v47.197c0,0.877,0,1.755,0.877,3.499h-0.877v81.289
		c0,84.787,55.941,142.473,140.729,142.473c83.032,0,138.973-57.686,138.973-142.473V735.54h-0.877v-0.877
		c0.877-0.868,0.877-1.745,0.877-2.622v-47.197c0-10.49,2.624-20.98,8.745-30.592c6.114-10.49,12.235-18.358,18.348-24.471
		c6.123-6.123,17.482-15.734,34.092-30.592l25.347-23.603c13.981-13.112,35.838-36.715,47.197-57.686
		c20.111-34.969,34.969-78.664,34.969-139.851C817.754,204.983,682.27,64.254,509.202,64.254L509.202,64.254z M508.325,903.363
		c-52.44,0-83.032-33.215-83.032-86.534v-37.583c23.602,7.867,51.572,12.234,83.91,12.234c34.092,0,62.063-5.245,83.912-13.112
		v38.46C593.113,871.893,561.643,903.363,508.325,903.363L508.325,903.363z M673.525,557.23l-5.245,4.368
		c-24.471,20.98-33.206,29.724-50.696,51.572c-17.48,20.98-24.471,43.704-24.471,71.675v34.96
		c-20.103,11.367-48.072,16.612-84.788,16.612c-47.196,0-71.665-8.744-83.032-15.734v-35.838c0-28.848-15.734-57.686-48.073-88.279
		c-4.368-3.499-10.49-8.744-18.358-16.612l-6.113-5.245l-24.481-22.725c-11.357-13.113-31.46-34.085-41.95-52.442
		c-16.612-30.592-29.725-69.054-29.725-121.494c0-71.675,24.481-132.86,73.421-182.688c48.95-49.818,108.39-75.165,179.188-75.165
		c138.974-3.499,255.232,118.872,252.61,257.854c0,48.073-10.49,83.912-27.102,111.005
		C717.23,517.024,698.004,536.25,673.525,557.23L673.525,557.23z"/>
</g>
</svg>
