<?xml version="1.0" encoding="utf-8"?>
<!-- Generator: Adobe Illustrator 18.0.0, SVG Export Plug-In . SVG Version: 6.00 Build 0)  -->
<!DOCTYPE svg PUBLIC "-//W3C//DTD SVG 1.1//EN" "http://www.w3.org/Graphics/SVG/1.1/DTD/svg11.dtd">
<svg version="1.1" id="图层_1" xmlns="http://www.w3.org/2000/svg" xmlns:xlink="http://www.w3.org/1999/xlink" x="0px" y="0px"
	 viewBox="0 0 1024 1024" style="enable-background:new 0 0 1024 1024;" xml:space="preserve">
<style type="text/css">
	.st0{fill-rule:evenodd;clip-rule:evenodd;}
</style>
<g>
	<path class="st0" d="M300.025,548.237c0,9.433,9.433,18.866,18.866,18.866h226.386c9.433,0,18.865-9.433,18.865-18.866
		s-9.433-18.865-18.865-18.865H318.89C309.458,529.371,300.025,538.804,300.025,548.237L300.025,548.237z M545.277,642.564H318.89
		c-9.433,0-18.866,7.546-18.866,18.865c0,9.433,9.433,18.866,18.866,18.866h226.386c9.433,0,18.865-9.433,18.865-18.866
		C564.142,650.11,554.709,642.564,545.277,642.564L545.277,642.564z M318.89,453.909h113.193c9.433,0,18.866-9.433,18.866-18.866
		c0-9.433-9.433-18.866-18.866-18.866H318.89c-9.433,0-18.866,9.433-18.866,18.866C300.025,444.476,309.458,453.909,318.89,453.909
		L318.89,453.909z"/>
	<path class="st0" d="M771.663,152.061H300.025c-9.433,0-18.866,9.433-18.866,18.866v94.328h-75.462
		c-9.433,0-18.866,9.433-18.866,18.866v528.235c0,9.433,9.433,18.866,18.866,18.866H658.47c11.319,0,18.866-7.546,18.866-18.866
		v-56.597h94.328c9.433,0,18.866-9.433,18.866-18.866V170.926C790.528,161.493,781.096,152.061,771.663,152.061L771.663,152.061z
		 M639.604,793.488H224.563V302.985h415.041V793.488L639.604,793.488z M658.47,265.254H318.89v-75.462h433.907v528.235h-75.462
		V284.119C677.335,274.687,667.902,265.254,658.47,265.254L658.47,265.254z"/>
</g>
</svg>
