<?xml version="1.0" encoding="utf-8"?>
<!-- Generator: Adobe Illustrator 18.0.0, SVG Export Plug-In . SVG Version: 6.00 Build 0)  -->
<!DOCTYPE svg PUBLIC "-//W3C//DTD SVG 1.1//EN" "http://www.w3.org/Graphics/SVG/1.1/DTD/svg11.dtd">
<svg version="1.1" id="图层_1" xmlns="http://www.w3.org/2000/svg" xmlns:xlink="http://www.w3.org/1999/xlink" x="0px" y="0px"
	 viewBox="0 0 1024 1024" style="enable-background:new 0 0 1024 1024;" xml:space="preserve">
<style type="text/css">
	.st0{fill-rule:evenodd;clip-rule:evenodd;fill:#212121;}
</style>
<g>
	<path class="st0" d="M617.154,664.589h223.998v-43.921H617.154V664.589L617.154,664.589z M617.154,770h223.998v-43.922H617.154V770
		L617.154,770z"/>
	<path class="st0" d="M748.917,857.842V655.805h-43.921v202.038H748.917L748.917,857.842z M599.585,537.218l114.196,105.411
		l26.353-30.745L630.33,502.08L599.585,537.218L599.585,537.218z"/>
	<path class="st0" d="M823.583,502.08L713.781,611.884l30.745,30.745l109.802-105.411L823.583,502.08L823.583,502.08z
		 M854.328,396.67V264.906c0-52.706-43.921-101.019-96.627-101.019H265.785c-52.706,0-96.627,43.921-96.627,101.019v496.309
		c0,52.705,43.921,101.019,96.627,101.019h228.39v-43.921h-228.39c-30.745,0-52.706-26.352-52.706-57.097V264.906
		c0-30.745,26.353-57.098,52.706-57.098h491.917c30.745,0,52.706,26.353,52.706,57.098v136.155h43.921V396.67L854.328,396.67z"/>
	<path class="st0" d="M287.745,387.886h215.213v-43.921H287.745V387.886L287.745,387.886z M287.745,532.825h215.213v-43.921H287.745
		V532.825L287.745,532.825z"/>
</g>
</svg>
