<?xml version="1.0" encoding="utf-8"?>
<!-- Generator: Adobe Illustrator 18.0.0, SVG Export Plug-In . SVG Version: 6.00 Build 0)  -->
<!DOCTYPE svg PUBLIC "-//W3C//DTD SVG 1.1//EN" "http://www.w3.org/Graphics/SVG/1.1/DTD/svg11.dtd">
<svg version="1.1" id="图层_1" xmlns="http://www.w3.org/2000/svg" xmlns:xlink="http://www.w3.org/1999/xlink" x="0px" y="0px"
	 viewBox="0 0 1024 1024" style="enable-background:new 0 0 1024 1024;" xml:space="preserve">
<style type="text/css">
	.st0{fill-rule:evenodd;clip-rule:evenodd;}
</style>
<g>
	<path class="st0" d="M734.671,174.875H217.012v673.2h575.177c22.684,0,41.316-18.632,41.316-41.315V215.381
		C833.505,193.507,814.873,174.875,734.671,174.875L734.671,174.875z M258.328,805.949V215.381c0,0,0-0.81,0.81-0.81h46.986v590.569
		L258.328,805.949L258.328,805.949z M792.189,806.76l-445.559-0.81V215.381h446.37L792.189,806.76L792.189,806.76z"/>
	<path class="st0" d="M460.855,498.918h72.91v48.607h-72.91c-11.341,0-20.253,8.911-20.253,20.253
		c0,11.341,8.911,20.253,20.253,20.253h72.91v68.859c0,11.341,8.911,20.253,20.253,20.253s20.253-8.911,20.253-20.253V588.03h64.809
		c11.341,0,20.253-8.911,20.253-20.253c0-11.341-8.911-20.253-20.253-20.253H574.27v-48.607h64.809
		c11.341,0,20.253-8.911,20.253-20.253c0-11.341-8.911-20.253-20.253-20.253h-49.417l45.366-55.897
		c7.291-8.911,5.671-21.873-3.24-28.354c-8.911-7.291-21.873-5.671-28.354,3.24l-50.227,61.568L496.5,375.782
		c-7.291-8.101-20.253-8.911-28.354-1.62c-8.101,7.291-8.911,20.253-1.62,28.354l49.416,55.087h-55.087
		c-11.341,0-20.253,8.911-20.253,20.253C440.602,489.197,449.514,498.918,460.855,498.918L460.855,498.918z"/>
</g>
</svg>
